<?xml version="1.0" encoding="UTF-8"?>
<svg id="Layer_1" data-name="Layer 1" xmlns="http://www.w3.org/2000/svg" version="1.1" viewBox="0 0 24 24">
  <defs>
    <style>
      .cls-1 {
        fill: #6ce588;
        stroke-width: 0px;
      }
    </style>
  </defs>
  <path class="cls-1" d="M6,22c-.8,0-1.5-.3-2.1-.9-.6-.6-.9-1.3-.9-2.1v-3h3V2h15v17c0,.8-.3,1.5-.9,2.1-.6.6-1.3.9-2.1.9H6ZM18,20c.3,0,.5,0,.7-.3s.3-.4.3-.7V4h-11v12h9v3c0,.3,0,.5.3.7s.4.3.7.3ZM9,9v-2h9v2h-9ZM9,12v-2h9v2h-9ZM6,20h9v-2H5v1c0,.3,0,.5.3.7s.4.3.7.3ZM6,20h-1,10H6Z"/>
</svg>