<?xml version="1.0" encoding="UTF-8"?>
<svg xmlns="http://www.w3.org/2000/svg" xmlns:xlink="http://www.w3.org/1999/xlink" viewBox="0 0 500 500">
  <defs>
    <style>
      .cls-1 {
        filter: url(#luminosity-noclip-3);
      }

      .cls-2 {
        filter: url(#luminosity-noclip-5);
      }

      .cls-3 {
        fill: url(#linear-gradient-4);
      }

      .cls-3, .cls-4, .cls-5, .cls-6, .cls-7, .cls-8, .cls-9, .cls-10, .cls-11, .cls-12, .cls-13, .cls-14, .cls-15, .cls-16, .cls-17, .cls-18, .cls-19, .cls-20 {
        stroke-width: 0px;
      }

      .cls-3, .cls-4, .cls-5, .cls-6, .cls-7, .cls-8, .cls-10, .cls-14, .cls-15, .cls-16, .cls-17, .cls-20 {
        fill-rule: evenodd;
      }

      .cls-3, .cls-4, .cls-21, .cls-7, .cls-12, .cls-14, .cls-20 {
        mix-blend-mode: multiply;
      }

      .cls-4 {
        fill: url(#linear-gradient-2);
      }

      .cls-22 {
        mask: url(#mask);
      }

      .cls-5, .cls-8, .cls-9, .cls-18 {
        fill: #043222;
      }

      .cls-5, .cls-9 {
        opacity: .3;
      }

      .cls-23 {
        filter: url(#luminosity-noclip);
      }

      .cls-6 {
        fill: #51963d;
      }

      .cls-7 {
        fill: #457b41;
        opacity: .24;
      }

      .cls-10, .cls-19 {
        fill: #005a3c;
      }

      .cls-11 {
        fill: #f4eccb;
      }

      .cls-12 {
        fill: #1e3639;
        opacity: .2;
      }

      .cls-13 {
        fill: #dff1e6;
      }

      .cls-14 {
        fill: url(#linear-gradient);
      }

      .cls-15 {
        fill: url(#linear-gradient-3);
      }

      .cls-16 {
        fill: url(#linear-gradient-5);
      }

      .cls-17 {
        fill: #27a669;
      }

      .cls-24 {
        isolation: isolate;
      }

      .cls-25 {
        mask: url(#mask-3);
      }

      .cls-26 {
        mask: url(#mask-2);
      }

      .cls-27 {
        mask: url(#mask-5);
      }

      .cls-28 {
        mask: url(#mask-4);
      }

      .cls-29 {
        mask: url(#mask-1);
      }

      .cls-20 {
        fill: #646a9b;
        opacity: .25;
      }
    </style>
    <filter id="luminosity-noclip" x="48.86" y="280.74" width="372.5" height="196.98" color-interpolation-filters="sRGB" filterUnits="userSpaceOnUse">
      <feFlood flood-color="#fff" result="bg"/>
      <feBlend in="SourceGraphic" in2="bg"/>
    </filter>
    <filter id="luminosity-noclip-2" x="48.86" y="-10414" width="372.5" height="32766" color-interpolation-filters="sRGB" filterUnits="userSpaceOnUse">
      <feFlood flood-color="#fff" result="bg"/>
      <feBlend in="SourceGraphic" in2="bg"/>
    </filter>
    <mask id="mask-1" x="48.86" y="-10414" width="372.5" height="32766" maskUnits="userSpaceOnUse"/>
    <linearGradient id="linear-gradient" x1="235.11" y1="279.59" x2="235.11" y2="565.66" gradientUnits="userSpaceOnUse">
      <stop offset=".39" stop-color="#000"/>
      <stop offset=".43" stop-color="#080808"/>
      <stop offset=".49" stop-color="#1e1e1e"/>
      <stop offset=".56" stop-color="#434343"/>
      <stop offset=".64" stop-color="#767676"/>
      <stop offset=".73" stop-color="#b7b7b7"/>
      <stop offset=".82" stop-color="#fff"/>
    </linearGradient>
    <mask id="mask" x="48.86" y="280.74" width="372.5" height="196.98" maskUnits="userSpaceOnUse">
      <g class="cls-23">
        <g class="cls-29">
          <polygon class="cls-14" points="48.86 319.74 81.04 399.71 114.36 416.73 202.12 426.49 223.41 421.16 243.88 438.71 263.39 477.72 290.69 477.72 344.32 387.03 370.65 375.33 421.36 300.24 185.38 280.74 48.86 319.74"/>
        </g>
      </g>
    </mask>
    <filter id="luminosity-noclip-3" x="121.69" y="339.64" width="161.93" height="138.08" color-interpolation-filters="sRGB" filterUnits="userSpaceOnUse">
      <feFlood flood-color="#fff" result="bg"/>
      <feBlend in="SourceGraphic" in2="bg"/>
    </filter>
    <filter id="luminosity-noclip-4" x="121.69" y="-10414" width="161.93" height="32766" color-interpolation-filters="sRGB" filterUnits="userSpaceOnUse">
      <feFlood flood-color="#fff" result="bg"/>
      <feBlend in="SourceGraphic" in2="bg"/>
    </filter>
    <mask id="mask-3" x="121.69" y="-10414" width="161.93" height="32766" maskUnits="userSpaceOnUse"/>
    <linearGradient id="linear-gradient-2" x1="202.16" y1="325.22" x2="204.8" y2="624.48" gradientUnits="userSpaceOnUse">
      <stop offset=".17" stop-color="#000"/>
      <stop offset=".18" stop-color="#060606"/>
      <stop offset=".32" stop-color="#474747"/>
      <stop offset=".45" stop-color="#7f7f7f"/>
      <stop offset=".58" stop-color="#acacac"/>
      <stop offset=".7" stop-color="#d0d0d0"/>
      <stop offset=".81" stop-color="#eaeaea"/>
      <stop offset=".92" stop-color="#f9f9f9"/>
      <stop offset="1" stop-color="#fff"/>
    </linearGradient>
    <mask id="mask-2" x="121.69" y="339.64" width="161.93" height="138.08" maskUnits="userSpaceOnUse">
      <g class="cls-1">
        <g class="cls-25">
          <polygon class="cls-4" points="251.15 397.85 237.26 409.52 200.4 390.65 216.67 411.6 192.27 418.6 158.46 411.6 158.46 339.64 144.21 349.31 144.64 387.03 121.69 417.55 202.12 426.49 223.41 421.16 243.88 438.71 263.39 477.72 263.39 409.74 283.62 389.36 283.62 345.48 247.18 347.43 251.15 397.85"/>
        </g>
      </g>
    </mask>
    <linearGradient id="linear-gradient-3" x1="202.16" y1="325.22" x2="204.8" y2="624.48" gradientUnits="userSpaceOnUse">
      <stop offset=".17" stop-color="#393c5b"/>
      <stop offset=".31" stop-color="#3c4d77"/>
      <stop offset=".51" stop-color="#3f629a"/>
      <stop offset=".69" stop-color="#4271b4"/>
      <stop offset=".86" stop-color="#447ac3"/>
      <stop offset="1" stop-color="#457ec9"/>
    </linearGradient>
    <filter id="luminosity-noclip-5" x="332.34" y="311.98" width="56.91" height="65.58" color-interpolation-filters="sRGB" filterUnits="userSpaceOnUse">
      <feFlood flood-color="#fff" result="bg"/>
      <feBlend in="SourceGraphic" in2="bg"/>
    </filter>
    <filter id="luminosity-noclip-6" x="332.34" y="-10414" width="56.91" height="32766" color-interpolation-filters="sRGB" filterUnits="userSpaceOnUse">
      <feFlood flood-color="#fff" result="bg"/>
      <feBlend in="SourceGraphic" in2="bg"/>
    </filter>
    <mask id="mask-5" x="332.34" y="-10414" width="56.91" height="32766" maskUnits="userSpaceOnUse"/>
    <linearGradient id="linear-gradient-4" x1="358.38" y1="310.97" x2="370.06" y2="473.93" xlink:href="#linear-gradient-2"/>
    <mask id="mask-4" x="332.34" y="311.98" width="56.91" height="65.58" maskUnits="userSpaceOnUse">
      <g class="cls-2">
        <g class="cls-27">
          <polygon class="cls-3" points="363.43 344.77 352.71 311.98 332.34 311.98 332.34 351.03 344.32 377.57 370.65 365.86 389.25 338.33 363.43 344.77"/>
        </g>
      </g>
    </mask>
    <linearGradient id="linear-gradient-5" x1="358.38" y1="310.97" x2="370.06" y2="473.93" xlink:href="#linear-gradient-3"/>
  </defs>
  <g class="cls-24">
    <g id="Layer_1" data-name="Layer 1">
      <rect class="cls-13" x="-62.14" y="-58.08" width="649.66" height="649.66"/>
      <g>
        <path class="cls-18" d="M195.71,225.25s-12.76-14.79-9.26-18.78,7.76,8.27,7.76,8.27c0,0-6.01-18.02.25-19.64,6.26-1.63,5.41,18.14,5.41,18.14,0,0,5.6-11.04,21.61-7.27,16.01,3.77,3.09,26.54,3.09,26.54"/>
        <path class="cls-18" d="M113.56,213.9l-6.46-7.03c2.99-3.23,6.36-6.14,10.14-8.57l10.99,10.86-6.44-13.46c4.83-2.41,10.26-4.07,16.36-4.72,2.37-.25,4.65-.36,6.86-.34l-2.98,38.14,16.03-36.4c33.46,8.97,44.45,49.54,44.45,49.54l-119.18,25.01s2.57-32.09,19.28-54.64l10.96,1.59Z"/>
        <polygon class="cls-8" points="48.86 319.74 81.04 399.71 114.36 416.73 202.12 426.49 223.41 421.16 243.88 438.71 263.39 477.72 290.69 477.72 344.32 387.03 370.65 375.33 421.36 300.24 185.38 280.74 48.86 319.74"/>
        <g class="cls-22">
          <polygon class="cls-8" points="48.86 319.74 81.04 399.71 114.36 416.73 202.12 426.49 223.41 421.16 243.88 438.71 263.39 477.72 290.69 477.72 344.32 387.03 370.65 375.33 421.36 300.24 185.38 280.74 48.86 319.74"/>
        </g>
        <g>
          <polygon class="cls-10" points="251.15 397.85 237.26 409.52 200.4 390.65 216.67 411.6 192.27 418.6 158.46 411.6 158.46 339.64 144.21 349.31 144.64 387.03 121.69 417.55 202.12 426.49 223.41 421.16 243.88 438.71 263.39 477.72 263.39 409.74 283.62 389.36 283.62 345.48 247.18 347.43 251.15 397.85"/>
          <polygon class="cls-10" points="363.43 354.24 352.71 321.45 332.34 321.45 332.34 360.5 344.32 387.03 370.65 375.33 389.25 347.79 363.43 354.24"/>
        </g>
        <g class="cls-21">
          <g class="cls-26">
            <polygon class="cls-15" points="251.15 397.85 237.26 409.52 200.4 390.65 216.67 411.6 192.27 418.6 158.46 411.6 158.46 339.64 144.21 349.31 144.64 387.03 121.69 417.55 202.12 426.49 223.41 421.16 243.88 438.71 263.39 477.72 263.39 409.74 283.62 389.36 283.62 345.48 247.18 347.43 251.15 397.85"/>
          </g>
          <g class="cls-28">
            <polygon class="cls-16" points="363.43 344.77 352.71 311.98 332.34 311.98 332.34 351.03 344.32 377.57 370.65 365.86 389.25 338.33 363.43 344.77"/>
          </g>
        </g>
        <polygon class="cls-17" points="283.62 389.36 263.39 409.73 279.69 387.03 276.41 345.99 283.62 345.48 283.62 389.36"/>
        <polygon class="cls-10" points="81.04 399.71 101.86 394.85 118.07 369.34 135.98 398.55 121.69 417.55 114.36 416.73 81.04 399.71"/>
        <polygon class="cls-17" points="144.21 349.31 144.64 387.03 135.98 398.55 132.85 393.44 138.75 388.79 142.26 381.69 141.08 349.39 144.21 349.31"/>
        <polygon class="cls-20" points="65.84 361.96 56.83 339.55 158.46 347.79 307.21 339.64 401.77 329.93 389.25 347.79 360.79 349.31 332.34 354.24 283.62 361.96 158.46 361.96 65.84 361.96"/>
        <path class="cls-6" d="M201.1,221.78s-155.69,30.1-178.52,66.43c-4.15,12.46,10.46,54.23,34.25,57.09,77.84,9.34,326.94,3.11,366.38-22.83,39.44-25.95,26.99-50.86,0-60.2-55.91-19.36-163-54.14-222.11-40.48Z"/>
        <path class="cls-6" d="M201.1,221.78s-155.69,30.1-178.52,66.43c-4.15,12.46,10.46,54.23,34.25,57.09,77.84,9.34,326.94,3.11,366.38-22.83,39.44-25.95,26.99-50.86,0-60.2-55.91-19.36-163-54.14-222.11-40.48Z"/>
        <path class="cls-17" d="M423.18,322.47c-5.85,3.9-16.38,7.29-30.23,10.32-11.98,2.6-26.48,4.83-42.65,6.86-20.13,2.38-42.86,4.33-66.68,5.84-2.38.14-4.83.36-7.22.51-9.6.5-19.41,1.01-29.22,1.44-2.45.14-4.83.22-7.29.36-32.76,1.3-65.88,1.8-95.68,1.51-36.15-.29-67.4-1.59-87.38-4.04-23.81-2.81-38.39-44.59-34.28-57.08,9.09-14.43,39.18-27.85,72.16-38.82,16.67-5.63,34.13-10.54,49.93-14.65,3.25-.79,6.42-1.59,9.52-2.38h.07c13.28-3.32,24.97-5.92,33.27-7.72,8.52-1.8,13.57-2.81,13.57-2.81,13.64-3.18,29.87-3.75,47.48-2.45,58.45,3.97,131.69,28,174.62,42.93,26.99,9.31,39.47,34.2,0,60.18Z"/>
        <path class="cls-7" d="M423.18,322.47c-39.4,25.98-288.49,32.18-366.35,22.8-17.1-2.02-29.44-24.1-33.48-41.06,88.9,10.61,373.35,3.54,418.38-26.12.79-.51,1.59-1.08,2.38-1.66,8.59,12.05,5.27,28.79-20.93,46.04Z"/>
        <path class="cls-5" d="M392.94,332.78c-11.98,2.6-26.48,4.83-42.65,6.86-1.37-7.72-3.32-15.3-5.7-22.73-9.52-29.15-27.35-43.44-55.42-54.48-33.84-13.35-68.62-23.16-101.67-37.81,8.52-1.8,13.57-2.81,13.57-2.81,13.64-3.18,29.87-3.75,47.48-2.45,36.66,12.12,74.68,22.15,104.92,44.38,22.23,16.31,33.7,41.71,39.47,69.06Z"/>
        <path class="cls-5" d="M144.21,349.31c-36.15-.29-67.4-1.59-87.38-4.04-23.81-2.81-38.39-44.59-34.28-57.08,9.09-14.43,39.18-27.85,72.16-38.82,12.2,13.64,22.3,28.14,30.23,43.73,8.15,15.73,14.22,32.54,18.33,50.66.22,1.01.58,2.02.79,3.03.22.94.22,1.73.14,2.52Z"/>
        <path class="cls-5" d="M171.2,242.95c-3.54-1.95-7.22-3.82-10.9-5.63-2.02-1.66-4.04-3.32-6.06-4.98h-.07c-3.1.79-6.28,1.59-9.52,2.38,3.32,1.59,6.64,3.17,9.96,4.83,8.95,7.36,17.61,15.15,25.69,23.38,18.11,18.54,33.99,39.18,47.19,61.55,4.47,7.58,8.66,15.37,12.41,23.31,2.45-.14,4.83-.22,7.29-.36-17.32-35.79-41.28-68.33-70.28-95.54,7.58,4.55,14.94,9.45,22.15,14.65,26.41,19.27,50.08,42.5,69.71,68.7,2.67,3.54,5.2,7.14,7.65,10.75,2.38-.14,4.83-.36,7.22-.51-28.86-42.21-67.61-77.64-112.42-102.54Z"/>
        <g>
          <path class="cls-6" d="M391.77,258.59s-12.82-35.09,11.65-45.58c13.28,0-.92,47.81-11.65,45.58Z"/>
          <path class="cls-17" d="M393.12,258.49c-.43.14-.94.14-1.37.07,0,0-12.77-35.07,11.69-45.53.22,0,.5,0,.72.14,11.47,1.59-.72,43.73-11.04,45.32Z"/>
          <path class="cls-5" d="M393.12,258.49c4.11-15.87,8.73-35.36,11.04-45.32,11.47,1.59-.72,43.73-11.04,45.32Z"/>
        </g>
        <g>
          <path class="cls-6" d="M397.12,270s43.93-61.98,89.38-39.22c-.7,15.07-46.03,53.43-89.38,39.22Z"/>
          <path class="cls-17" d="M486.49,230.75c-.72,15.08-45.97,53.4-89.26,39.25h-.14s43.94-61.98,89.4-39.25Z"/>
          <path class="cls-5" d="M486.49,230.75c-.72,15.08-45.97,53.4-89.26,39.25,18.11-.58,89.26-39.25,89.26-39.25Z"/>
        </g>
        <g>
          <path class="cls-6" d="M409.77,278.74s22.14,14.29,57.09,14.29c.7,12.59-53.78,18.3-57.09-14.29Z"/>
          <path class="cls-17" d="M466.82,293.04c.72,12.56-53.76,18.26-57.08-14.29,0,0,22.15,14.29,57.08,14.29Z"/>
          <path class="cls-5" d="M466.82,293.04c.72,12.56-53.76,18.26-57.08-14.29,0,0,10.1,14.94,27.28,16.81,17.17,1.88,29.8-2.53,29.8-2.53Z"/>
        </g>
        <g>
          <path class="cls-18" d="M351.29,267.7s8.29-19.11,15.56-17.89c7.27,1.21,3.51,9.58,3.51,9.58,0,0,6.73-5.58,12.86-4.65,6.13.93,0,15.15,0,15.15"/>
          <path class="cls-18" d="M270.82,272.72s-14.56-19.13-9.5-22.97c5.06-3.85,12.3,9.56,12.3,9.56,0,0-10.35-21.62,5.84-23.32,16.19-1.7,29.2,23.41,29.2,23.41,0,0,2.31-7.44,8.12-4.65,5.81,2.79-8.12,18.94-8.12,18.94"/>
          <polygon class="cls-19" points="324.98 272.72 333.51 78 358.22 78 362.08 272.72 324.98 272.72"/>
          <polygon class="cls-19" points="276.63 272.72 296.51 78 308.67 78 302.52 272.72 276.63 272.72"/>
          <path class="cls-19" d="M295.33,155s-21.03,1.63-20.89-15.34h-3.37s-4.47,25.34,23.97,25.34"/>
          <path class="cls-19" d="M387.17,91.52h5.29s10.36,83.84-36.19,83.78v-15.63s34.14,5.33,30.9-68.16Z"/>
          <polygon class="cls-9" points="292.65 272.72 287.24 168.81 276.63 272.72 292.65 272.72"/>
          <polygon class="cls-9" points="341.33 272.72 343.53 78 333.51 78 324.98 272.72 341.33 272.72"/>
          <path class="cls-18" d="M277.49,140.58s-3.18-4.62,4.08-6.05c2.51,5.33-4.08,6.05-4.08,6.05Z"/>
          <path class="cls-18" d="M276.96,144.07s3.04-4.68,8.6-.71c-4.16,4.64-8.6.71-8.6.71Z"/>
          <path class="cls-18" d="M383.89,122.97s-7.64-1.99-2.71-8.04c7.79,3.07,2.71,8.04,2.71,8.04Z"/>
          <path class="cls-18" d="M393.91,130.43s-2.9-8.1,9.06-8.29c1.53,9.02-9.06,8.29-9.06,8.29Z"/>
        </g>
        <g>
          <path class="cls-11" d="M180.25,256.64s17.93,7.79,31.51,6.1c-2.81-19.32-29.72-19.86-31.51-6.1Z"/>
          <path class="cls-11" d="M105.44,284.17l83.89-3.88s-3.58-5.76-9.83-12.36c-9.12-9.67-23.94-21.21-41.49-19.22-6.73.76-12.06,3.01-16.31,6.06-14.45,10.26-16.25,29.4-16.25,29.4Z"/>
          <path class="cls-12" d="M105.44,284.17l83.89-3.88s-3.58-5.76-9.83-12.36c-14.49,1.24-45.2,1.85-57.8-13.16-14.45,10.26-16.25,29.4-16.25,29.4Z"/>
        </g>
        <path class="cls-18" d="M364.24,88c.39-5.75-5.01-11.82-9.7-10.18.89-9.51-6.42-18.91-14.51-18.66-1.63.05-3.62.24-4.51-1.37-.38-.69-.44-1.56-.56-2.37-1.04-6.99-7.7-11.49-13.65-10.55-5.96.94-10.93,6.16-13.93,12.31-1.68-2.66-4.81-3.9-7.51-2.97s-4.78,3.94-5.01,7.25c-4.51-2.64-10.25-2.08-14.33,1.4-4.08,3.48-6.34,9.74-5.64,15.63,0,0-7.43-3.47-11.33-1.61-3.2,1.52-6.95,7.17-6.12,11.13h106.82Z"/>
        <path class="cls-18" d="M257.5,88c-1.1,1.13-2.38,4.28-1.72,5.81.66,1.53,1.85,2.63,3,3.68-1.58,2.02-1.78,5.21-.88,7.74.9,2.54,2.75,4.47,4.8,5.77,4.06,2.58,9.11,2.87,13.37.78,2.75,6.85,8.11,12.31,14.37,13.96s13.29-.75,17.51-6.48c2.98,6.01,9.38,9.36,15.15,7.92,5.77-1.44,10.49-7.55,11.16-14.47,1.44,2.02,3.09,4.03,5.24,4.72,2.15.69,4.89-.53,5.39-3.1,2.88,4.57,7.06,8.13,11.8,9.22,4.73,1.09,9.98-.5,13.3-4.64,2.79-3.48,3.99-8.28,5.11-12.89,2.32,2.75,6.17,3.49,9.1,1.75,2.94-1.74,4.73-5.83,4.25-9.67,2.58,1.34,5.72,1.05,8.09-.75,2.37-1.8,3.9-6.02,3.94-9.35h-142.97Z"/>
        <path class="cls-18" d="M326.79,70.86c.51-4.04,5.7-6.66,9.25-4.66.1-4.71.59-9.5,2.42-13.85,1.83-4.34,5.17-8.23,9.61-9.83,4.43-1.6,9.96-.48,12.79,3.3,1.67,2.23,2.27,5.05,2.83,7.78,1.18-1.14,3.17-1.03,4.58-.18,1.41.84,2.38,2.25,3.3,3.61,1.91-6.37,9.3-10.34,15.8-8.92,6.5,1.42,30.92,14.04,12.22,43.22-32.17,17.95-76.35-21.71-72.79-20.46Z"/>
        <circle class="cls-18" cx="340.5" cy="47" r="16"/>
        <ellipse class="cls-18" cx="308.5" cy="56.5" rx="15" ry="18.5"/>
      </g>
    </g>
  </g>
</svg>