<?xml version="1.0" encoding="UTF-8"?>
<svg id="Layer_1" data-name="Layer 1" xmlns="http://www.w3.org/2000/svg" xmlns:xlink="http://www.w3.org/1999/xlink" viewBox="0 0 300 300">
  <defs>
    <style>
      .cls-1 {
        fill: #27a669;
      }

      .cls-1, .cls-2, .cls-3, .cls-4, .cls-5, .cls-6, .cls-7, .cls-8, .cls-9 {
        stroke-width: 0px;
      }

      .cls-2 {
        fill: #6ce588;
      }

      .border {
        stroke-width: 10px;
        stroke: #F4ECCB;
      }

      .cls-10 {
        clip-path: url(#clippath);
      }

      .cls-3 {
        fill: none;
      }

      .cls-4 {
        fill: #4c7449;
      }

      .cls-5 {
        fill: #ffe83d;
      }

      .cls-5, .cls-6, .cls-9 {
        fill-rule: evenodd;
      }

      .cls-6, .cls-8 {
        fill: #043222;
      }

      .cls-7 {
        fill: #30382f;
      }

      .cls-9 {
        fill: #fff;
      }

  @keyframes shake {
    0% {
      transform: rotate(0deg) translate(0, 0);
    } 
    10% {
      transform: rotate(-2deg) translate(-2px, 2px); 
    }
    20% {
      transform: rotate(2deg) translate(0px, 3px);
    }
    30% {
      transform: rotate(-2deg) translate(-1px, 4px);
    }
    40% {
      transform: rotate(2deg) translate(1px, 3px);
    }
    50% {
      transform: rotate(-2deg) translate(-1px, 2px);
    }
    60% {
      transform: rotate(2deg) translate(-2px, 3px);
    }
    70% {
      transform: rotate(-2deg) translate(-1px, 4px);  
    }
    80% {
      transform: rotate(2deg) translate(1px, 3px); 
    }
    90% {
      transform: rotate(-2deg) translate(-2px, 2px); 
    } 
    100% {
      transform: rotate(0deg) translate(0, 0);
    }
  }

  .leaves {
    animation: shake 1s 1; 
    transform-origin: bottom;
  }


      @keyframes moveLeaf1 {
       0% {
          transform: scale(1.2) translate(10px, -50px) rotate(-10deg);
        }
        50% {
          transform: scale(1.2) translate(10px, -50px) rotate(-10deg);
        }
        100% {
          transform: scale(1) translate(0,0) rotate(0);
        }
      }
      @keyframes moveLeaf2 {
        0% {
          transform: scale(1.2) translate(10px, -50px) rotate(20deg);
        }
        50% {
          transform: scale(1.2) translate(10px, -50px) rotate(20deg);
        }
        100% {
          transform: scale(1) translate(0,0) rotate(0);
        }
      }
       @keyframes moveLeaf3 {
        0% {
          transform: scale(1.2) translate(10px, -50px) rotate(5deg);
        }
        50% { 
          transform: scale(1.2) translate(10px, -50px) rotate(5deg);
        }
        100% {
          transform: scale(1) translate(0, 0) rotate(0);
        }
      }
      @keyframes moveLeaf4 {
        0% {
          transform: scale(1.2) translate(10px, -50px) rotate(20deg);
        }
        50% {
          transform: scale(1.2) translate(10px, -50px) rotate(20deg);
        }
        100% {
          transform: scale(1) translate(0,0) rotate(0);
        }
      }
      @keyframes moveLeaf5 {
        0% {
          transform: scale(1.2) translate(10px, -50px) rotate(33deg);
        }
        50% {
          transform: scale(1.2) translate(10px, -50px) rotate(33deg);
        }
        100% {
          transform: scale(1) translate(0,0) rotate(0);
        }
      }

      .leaf1 {
        animation: moveLeaf1 2s forwards; 
      }
      .leaf2 {
        animation: moveLeaf2 2s forwards;
      }
      .leaf3 {
        animation: moveLeaf3 2s forwards;
      }
      .leaf4 {
        animation: moveLeaf4 2s forwards;
      }
      .leaf5 {
        animation: moveLeaf5 2s forwards;
      }
      
      .leaf {
        transform-origin: bottom;
      }

  @keyframes moveBee {
    0% {
      transform: scale(0.8) translate(0,100px);
    } 
    50% {
      transform: scale(0.8) translate(0,100px);
    } 
    100% {
      transform: scale(1) translate(0, 0);
    }

  }
  .bee {
    transform-origin: bottom;
    animation: moveBee 2.5s forwards;
  }

    </style>
    <clipPath id="clippath">
      <circle class="cls-3" cx="150" cy="150" r="147"/>
    </clipPath>
  </defs>
  <circle class="cls-2" cx="150" cy="150" r="147"/>

  <g class="bee">
    <path class="cls-5" d="M137.62,165.03c-7.31-.36-14.55-3.42-20.63-7.36-1.78-1.15-3.5-2.41-5.15-3.74l-5.35-4.34,6.86.58c1.31.11,2.61.17,3.92.19,10.79.14,22.6-3.03,31.88-8.53,1.13-.67,2.23-1.38,3.3-2.13l5.66-3.93-2.47,6.43c-.76,1.98-1.62,3.92-2.59,5.81-3.3,6.45-8.04,12.72-14.19,16.69l-.57.37-.68-.03Z"/>
    <path class="cls-5" d="M117.32,146.76c-4.84-.06-9.58-.81-14.22-2.15l-.67-.19-.43-.55c-.57-.75-1.13-1.51-1.66-2.28l-.99-1.44,1.22-1.25c2.25-2.3,4.37-4.74,6.31-7.31l.77-1.01,1.25.2c2.97.46,5.97.76,8.98.78,8.05.07,14.45-1.65,21.38-5.72,2.59-1.52,5.05-3.28,7.39-5.16l.99-.8,1.17.5c2.97,1.26,6.01,2.32,9.12,3.18l1.68.47-.14,1.74c-.08.94-.18,1.88-.3,2.81l-.09.69-.48.5c-3.36,3.48-7.09,6.5-11.25,8.97-8.78,5.21-19.81,8.16-30.01,8.03Z"/>
    <path class="cls-5" d="M117.9,127.97c-1.57-.01-3.14-.1-4.71-.25l-3.28-.32,1.66-2.85c4.03-6.95,6.79-14.58,7.82-22.56l.66-5.11,3.12,4.09c4.88,6.4,11.08,11.63,18.05,15.63l2.86,1.65-2.69,1.92c-1.28.91-2.6,1.78-3.95,2.57-6.33,3.72-12.2,5.29-19.54,5.23Z"/>
    <path class="cls-5" d="M131.46,82.87c-4.17.31-8.3,1.02-12.35,2.07-1.41.37-2.82.74-4.23,1.13-4.03,1.11-7.96,2.56-11.73,4.38l-2.58,1.25-.44-2.83c-.7-4.49-.25-9.21,1.63-13.37,1.96-4.35,5.44-7.85,10.11-9.1s9.44.04,13.31,2.83c3.7,2.67,6.45,6.54,8.09,10.77l1.03,2.67-2.85.21Z"/>
    <path class="cls-9 wing-left wing-white" d="M100.84,95.74c3.97-2.3,8.2-4.12,12.58-5.49l2.6-.82.15,2.72c.66,11.79-2.87,23.15-9.2,33.04-3.09,4.83-6.81,9.25-10.98,13.19l-.31.29c-5.29,4.99-11.35,9.18-17.82,12.49l-2.6,1.33-.46-2.88c-1.79-11.17.37-23,5.68-32.96,4.61-8.63,11.44-15.62,19.85-20.61l.07-.04.08-.04c.08-.04.15-.08.22-.13l.07-.05.07-.04Z"/>
    <path class="cls-9 wing-right wing-white" d="M183.72,122.81c-7.26.36-14.6-.24-21.68-1.92l-.42-.1c-5.58-1.32-11.01-3.3-16.1-5.94-10.43-5.4-19.16-13.48-24.48-24.02l-1.23-2.43,2.66-.59c4.48-.99,9.05-1.53,13.64-1.52h.08s.08,0,.08,0c.09,0,.17,0,.26,0h.09s.09,0,.09,0c9.78.12,19.18,2.76,27.49,7.94,9.58,5.97,17.36,15.14,21.39,25.71l1.04,2.73-2.91.14Z"/>
    <path class="cls-6 " d="M162.11,118.74c-5.49-1.31-10.75-3.24-15.62-5.76-10.11-5.23-18.48-13.02-23.56-23.1,4.59-1.02,8.99-1.48,13.18-1.47.19.02.38.02.58,0,10.14.13,19.04,3.04,26.39,7.62,9.85,6.14,16.95,15.25,20.53,24.67-7.16.36-14.29-.28-21.08-1.86l-.41-.1ZM113.4,125.61c4.2-7.25,7.03-15.14,8.09-23.35,5.02,6.58,11.41,12,18.67,16.18-1.24.89-2.51,1.71-3.8,2.47-6.02,3.54-11.46,4.99-18.45,4.94-1.49-.01-3-.1-4.52-.24ZM140.33,127.66c2.63-1.55,5.17-3.35,7.64-5.34,3.03,1.28,6.16,2.37,9.37,3.27-.07.89-.17,1.79-.29,2.7-3.35,3.47-6.92,6.31-10.81,8.62-8.43,5-19.1,7.86-28.9,7.74-4.52-.06-9.04-.73-13.67-2.06-.56-.72-1.09-1.46-1.6-2.19,2.34-2.38,4.5-4.89,6.48-7.52,3.13.49,6.23.78,9.29.81,8.46.07,15.18-1.73,22.47-6.02ZM150.24,143.64c1.17-.69,2.31-1.43,3.43-2.21-.74,1.91-1.57,3.79-2.5,5.61-3.39,6.63-7.98,12.35-13.45,15.87-6.5-.32-13.34-2.98-19.58-7.03-1.71-1.11-3.37-2.32-4.96-3.61,1.36.11,2.72.18,4.08.2,11.16.14,23.39-3.13,32.99-8.83ZM139.79,170.63h.03s.07-.03.07-.03h.02s.04-.02.04-.02l.06-.02h.04s.05-.03.05-.03h.04s.05-.03.05-.03l.04-.02h0s.34-.16.34-.16h.01s.03-.02.03-.02l.06-.03.09-.05h.02s.03-.03.03-.03c7.23-4.26,13.15-11.38,17.35-19.6,3.71-7.25,6.11-15.43,6.9-23.26,7.88,1.39,16.08,1.67,24.22.76,2.15-.24,3.7-2.19,3.46-4.34-.03-.3-.1-.6-.2-.87-.09-.36-.19-.7-.29-1.04-3.57-12.26-12.32-24.53-25.03-32.45-7.82-4.88-17.14-8.12-27.65-8.71-1.98-6.85-6.02-12.48-11.02-16.08-.9-.65-1.83-1.23-2.78-1.74,1.99-6.86,5.19-12.25,9.61-16.16,1.81,2.7,5.19,4.08,8.5,3.19,4.16-1.11,6.63-5.39,5.52-9.55-1.11-4.16-5.39-6.63-9.55-5.52-2.06.55-5.22,2.58-6.93,3.8-6.9,4.94-11.75,12.19-14.57,21.75-2.61-.37-5.29-.23-7.93.47s-5.03,1.93-7.11,3.55c-7.21-6.87-15.04-10.73-23.49-11.56-2.09-.21-5.85-.38-7.91.17-4.16,1.11-6.63,5.39-5.52,9.55,1.11,4.16,5.39,6.63,9.55,5.52,3.31-.89,5.55-3.77,5.77-7.01,5.78,1.18,11.25,4.24,16.4,9.19-.57.92-1.08,1.89-1.54,2.9-2.53,5.61-3.22,12.51-1.51,19.43-8.81,5.77-15.26,13.23-19.6,21.36-7.05,13.21-8.51,28.21-5.47,40.62.08.34.17.69.27,1.05.05.29.14.58.26.86.86,1.99,3.18,2.89,5.16,2.03,7.5-3.28,14.47-7.61,20.6-12.76,4.59,6.39,10.75,12.27,17.59,16.7,7.74,5.02,16.43,8.23,24.82,8.31h.03s.02,0,.02,0h.1s.07,0,.07,0h.03s.01,0,.01,0l.37-.04h0s.04,0,.04,0h.05s.04-.02.04-.02h.06s.04-.02.04-.02h.06s.04-.02.04-.02h.02s.07-.02.07-.02h.03ZM118.58,82.89c4.39-1.14,8.63-1.83,12.72-2.13-1.62-4.18-4.24-7.57-7.35-9.82-3.49-2.52-7.61-3.55-11.52-2.5-3.91,1.05-6.96,4-8.73,7.92-1.58,3.5-2.15,7.75-1.47,12.18,3.7-1.79,7.72-3.31,12.09-4.51,1.41-.39,2.84-.77,4.26-1.14ZM82.34,117.64c4.08-7.64,10.33-14.61,19.06-19.78.18-.09.34-.18.5-.29,3.63-2.1,7.67-3.9,12.15-5.31.63,11.27-2.73,22.19-8.87,31.78-2.95,4.61-6.55,8.91-10.65,12.79l-.31.29c-5.09,4.76-10.95,8.88-17.33,12.15-1.6-9.94,0-21.38,5.46-31.62Z"/>
  </g>
    <g class="cls-10">
    <g class="leaves">
      <g class="leaf1 leaf">
        <path class="cls-1" d="M240,132.09l.07-5.02-4.55,2.12c-70.09,32.7-109.37,68.7-116.75,106.99-6.29,32.64,13.46,54.14,14.31,55.04l.54.57.74.25c1.17.4,28.88,9.58,56.06-9.56,31.89-22.46,48.57-73.06,49.6-150.4Z"/>
        <path class="cls-8" d="M240,132.09l.07-5.02-4.55,2.12c-70.09,32.7-109.37,68.7-116.75,106.99-6.29,32.64,13.46,54.14,14.31,55.04l.54.57.74.25c1.17.4,28.88,9.58,56.06-9.56,31.89-22.46,48.57-73.06,49.6-150.4ZM141.62,202.98l11.39,53-10.44,16.16-11.35-52.82c2.72-5.47,6.2-10.92,10.4-16.33ZM173.22,236.31l47.29-10.16c-1.8,5.4-3.78,10.45-5.93,15.17l-51.79,11.13,10.43-16.14ZM178.06,228.82l10.44-16.16,37.86-8.13c-1.11,5.12-2.35,10.03-3.71,14.71l-44.59,9.58ZM193.34,205.18l10.43-16.14,26.31-5.67c-.69,4.97-1.46,9.78-2.34,14.41l-34.39,7.39ZM208.61,181.55l10.44-16.15,13.28-2.85c-.39,4.87-.86,9.59-1.4,14.2l-22.32,4.81ZM223.88,157.92l9.54-14.77c-.15,4.37-.37,8.66-.63,12.85l-8.91,1.91ZM218.93,153.97l-1.85-8.6c3.59-1.89,7.27-3.77,11.05-5.64l-9.2,14.24ZM214.1,161.45l-10.44,16.16-4.73-22.03c3.98-2.38,8.11-4.75,12.39-7.1l2.79,12.97ZM198.82,185.09l-10.43,16.14-7.34-34.15c3.86-2.69,7.93-5.37,12.17-8.02l5.59,26.03ZM183.55,208.72l-10.44,16.16-9.54-44.39c3.71-3.15,7.68-6.28,11.9-9.39l8.08,37.62ZM168.27,232.36l-10.43,16.14-11.1-51.68c3.43-3.88,7.23-7.74,11.41-11.57l10.12,47.11ZM157.95,259.93l53.07-11.4c-3.26,6.09-6.86,11.51-10.8,16.23l-52.71,11.33,10.44-16.16ZM124.95,237.38c.5-2.59,1.19-5.18,2.03-7.77l10.74,50.01-2.61,4.04c-4.84-6.75-14.52-23.65-10.16-46.28ZM140.41,287.07l2.26-3.5,49.71-10.68c-1.78,1.57-3.61,3.04-5.5,4.37-18.8,13.3-38.28,11.43-46.46,9.81Z"/>
      </g>
      <g class="leaf2 leaf">
        <path class="cls-4" d="M200.62,248.16c-17.18,28.46-6.07,55.45-5.59,56.59l.3.72.61.49c.96.78,23.79,18.97,55.91,10.4,37.68-10.05,70.83-51.77,98.51-123.99l1.8-4.69-5,.42c-77.07,6.46-126.38,26.67-146.53,60.06Z"/>
        <path class="cls-7" d="M200.62,248.16c-17.18,28.46-6.07,55.45-5.59,56.59l.3.72.61.49c.96.78,23.79,18.97,55.91,10.4,37.68-10.05,70.83-51.77,98.51-123.99l1.8-4.69-5,.42c-77.07,6.46-126.38,26.67-146.53,60.06ZM267.81,302.76l-53.49-7.6,15.38-11.55,53.67,7.63c-5.1,4.58-10.29,8.43-15.56,11.53ZM232.53,273.59l7.46-52.45c4.56-2.48,9.46-4.81,14.72-6.98l-6.81,47.89-15.36,11.54ZM261.44,211.55c4.57-1.69,9.38-3.26,14.41-4.74l-5.45,38.34-15.38,11.55,6.42-45.15ZM282.48,204.97c4.56-1.2,9.31-2.32,14.21-3.35l-3.8,26.64-15.36,11.54,4.95-34.83ZM303.25,200.3c4.56-.87,9.24-1.67,14.06-2.4l-1.91,13.45-15.38,11.55,3.22-22.6ZM323.81,196.97c4.16-.56,8.42-1.07,12.77-1.53l-14.06,10.56,1.28-9.02ZM340.37,200.48c-1.6,3.9-3.21,7.71-4.85,11.42l-8.7-1.24,13.55-10.18ZM332.83,217.88c-2.04,4.44-4.11,8.72-6.21,12.86l-22.31-3.17,15.38-11.55,13.14,1.87ZM323.54,236.66c-2.35,4.42-4.73,8.66-7.14,12.71l-34.58-4.91,15.36-11.54,26.36,3.75ZM312.79,255.22c-2.8,4.42-5.65,8.6-8.53,12.53l-44.95-6.39,15.38-11.55,38.09,5.41ZM299.89,273.49c-3.53,4.44-7.11,8.5-10.74,12.2l-52.33-7.44,15.36-11.54,47.7,6.78ZM210.03,290.5l7.59-53.38c4.44-4.26,9.59-8.23,15.43-11.91l-7.64,53.74-15.38,11.55ZM203.34,303.4l3.85-2.89,50.64,7.2c-2.52,1.02-5.06,1.89-7.6,2.57-22.27,5.94-39.8-2.52-46.88-6.87ZM206.08,251.31c1.2-1.98,2.53-3.91,3.98-5.8l-7.16,50.34-3.33,2.5c-2.2-8.05-5.43-27.35,6.51-47.04Z"/>
      </g>
      <g class="leaf3 leaf">
        <path class="cls-1" d="M.42,184.81l-5.31-1.92.58,5.62c8.87,86.56,32.63,141.59,70.6,163.57,32.36,18.73,62.5,5.68,63.77,5.11l.8-.36.54-.69c.86-1.09,20.84-27.16,10.53-63.1-12.09-42.18-59.71-78.59-141.52-108.23Z"/>
        <path class="cls-8" d="M.42,184.81l-5.31-1.92.58,5.62c8.87,86.56,32.63,141.59,70.6,163.57,32.36,18.73,62.5,5.68,63.77,5.11l.8-.36.54-.69c.86-1.09,20.84-27.16,10.53-63.1-12.09-42.18-59.71-78.59-141.52-108.23ZM39.43,315.53l60.53,7.46,13.31,17.06-60.32-7.44c-4.81-4.91-9.32-10.62-13.52-17.09ZM86.52,294.25l6.66-54.01c5.07,3.9,9.71,7.87,13.93,11.9l-7.29,59.15-13.3-17.04ZM80.35,286.34l-13.31-17.06,5.33-43.23c5.04,3.07,9.79,6.2,14.26,9.37l-6.28,50.92ZM60.87,261.38l-13.3-17.04,3.69-30.05c5.02,2.56,9.85,5.17,14.45,7.81l-4.84,39.28ZM41.39,236.43l-13.31-17.06,1.87-15.17c5.03,2.21,9.88,4.46,14.57,6.73l-3.13,25.49ZM21.92,211.47l-12.17-15.59c4.59,1.78,9.07,3.58,13.42,5.42l-1.26,10.18ZM15.89,215.27l-9.82-1.21c-.69-4.51-1.33-9.11-1.92-13.82l11.73,15.03ZM22.06,223.18l13.32,17.06-25.16-3.1c-1.06-5.11-2.06-10.37-2.97-15.79l14.82,1.83ZM41.54,248.14l13.3,17.04-39-4.81c-1.43-5.1-2.77-10.41-4.03-15.9l29.72,3.67ZM61.01,273.09l13.31,17.06-50.69-6.25c-1.98-5.11-3.84-10.48-5.58-16.11l42.96,5.3ZM80.49,298.05l13.3,17.04-59.02-7.28c-2.85-5.08-5.55-10.54-8.08-16.4l53.8,6.64ZM105.99,319.19l7.47-60.6c5.26,5.71,9.69,11.54,13.27,17.47l-7.42,60.2-13.31-17.06ZM69.84,345.94c-2.57-1.49-5.07-3.18-7.5-5.02l57.11,7.05,3.33,4.27c-8.96,2.65-30.49,6.7-52.93-6.29ZM128.35,347.85l-2.88-3.7,7-56.77c1.01,2.47,1.89,4.96,2.62,7.46,7.19,24.89-1.98,44.91-6.73,53Z"/>
      </g>
      <g class="leaf4 leaf">
        <path class="cls-1" d="M142.78,275.07c-14.66,40.84,6.51,72.54,7.42,73.87l.58.84.9.48c1.43.75,35.34,18.15,74.23-1.09,45.64-22.57,77.32-84.5,94.15-184.06l1.09-6.46-6.29,1.82c-96.98,28.12-154.87,66.68-172.07,114.6Z"/>
        <path class="cls-8" d="M142.78,275.07c-14.66,40.84,6.51,72.54,7.42,73.87l.58.84.9.48c1.43.75,35.34,18.15,74.23-1.09,45.64-22.57,77.32-84.5,94.15-184.06l1.09-6.46-6.29,1.82c-96.98,28.12-154.87,66.68-172.07,114.6ZM242.83,327.64l-70.42,4.04,16.71-18.75,70.65-4.06c-5.35,7.17-11.01,13.43-16.95,18.76ZM190.17,299.4l-3.96-69.05c5.2-4.35,10.87-8.6,17.04-12.73l3.62,63.05-16.69,18.73ZM211.19,212.54c5.42-3.33,11.16-6.59,17.23-9.77l2.9,50.47-16.71,18.75-3.41-59.44ZM236.43,198.7c5.53-2.71,11.31-5.36,17.33-7.95l2,35.08-16.69,18.72-2.63-45.85ZM261.81,187.38c5.61-2.28,11.39-4.52,17.38-6.69l1.02,17.71-16.71,18.74-1.69-29.75ZM287.26,177.83c5.18-1.79,10.5-3.54,15.95-5.25l-15.27,17.13-.68-11.88ZM309.36,178.05c-1.04,5.41-2.13,10.69-3.27,15.86l-11.46.66,14.72-16.52ZM304.19,202.26c-1.47,6.2-3.02,12.22-4.64,18.05l-29.37,1.69,16.71-18.75,17.3-.99ZM297.14,228.69c-1.87,6.26-3.82,12.31-5.87,18.1l-45.52,2.61,16.69-18.73,34.7-1.99ZM288.16,255.22c-2.45,6.38-5.01,12.46-7.69,18.23l-59.17,3.4,16.71-18.75,50.15-2.88ZM276.36,281.92c-3.37,6.59-6.91,12.71-10.6,18.38l-68.89,3.96,16.69-18.72,62.8-3.61ZM165.72,326.83l-4.04-70.27c4.58-6.59,10.16-13,16.68-19.22l4.06,70.74-16.71,18.75ZM160.49,345.06l4.18-4.69,66.67-3.83c-2.96,1.95-5.98,3.72-9.07,5.25-26.98,13.34-51.59,7.02-61.77,3.27ZM150.58,277.69c1.03-2.84,2.23-5.66,3.59-8.45l3.8,66.26-3.62,4.06c-4.88-9.73-13.99-33.6-3.78-61.88Z"/>
      </g>
      <g class="leaf5 leaf">
        <path class="cls-1" d="M24.56,168.6l-5.57-2.52.15,6.11c2.29,94.16,23.29,155.55,62.43,182.47,33.35,22.94,66.97,11.39,68.39,10.89l.9-.32.64-.7c1.02-1.11,24.78-27.55,16.68-67.21-9.5-46.53-57.82-89.84-143.61-128.71Z"/>
        <path class="cls-8" d="M24.56,168.6l-5.57-2.52.15,6.11c2.29,94.16,23.29,155.55,62.43,182.47,33.35,22.94,66.97,11.39,68.39,10.89l.9-.32.64-.7c1.02-1.11,24.78-27.55,16.68-67.21-9.5-46.53-57.82-89.84-143.61-128.71ZM55.66,312.96l64.69,13.15,12.93,19.53-64.47-13.11c-4.78-5.71-9.16-12.24-13.15-19.58ZM108.27,293.95l11.73-57.73c5.15,4.64,9.81,9.31,14.03,14.02l-12.85,63.22-12.92-19.51ZM102.27,284.9l-12.93-19.53,9.39-46.21c5.18,3.74,10.04,7.52,14.6,11.32l-11.06,54.42ZM83.35,256.32l-12.92-19.51,6.51-32.12c5.2,3.19,10.19,6.4,14.94,9.64l-8.53,41.98ZM64.43,227.76l-12.93-19.53,3.3-16.21c5.24,2.81,10.28,5.64,15.16,8.49l-5.52,27.25ZM45.51,199.18l-11.82-17.85c4.81,2.31,9.48,4.63,14.03,6.97l-2.21,10.88ZM38.69,202.78l-10.49-2.13c-.36-4.92-.67-9.95-.9-15.08l11.4,17.21ZM44.68,211.83l12.93,19.53-26.89-5.47c-.72-5.6-1.35-11.36-1.88-17.29l15.84,3.22ZM63.61,240.41l12.92,19.51-41.68-8.47c-1.12-5.63-2.12-11.47-3.01-17.5l31.77,6.46ZM82.52,268.97l12.93,19.53-54.18-11.01c-1.7-5.68-3.26-11.63-4.67-17.85l45.92,9.33ZM101.44,297.55l12.92,19.51-63.08-12.82c-2.65-5.72-5.11-11.84-7.34-18.38l57.5,11.69ZM127.18,322.51l13.17-64.77c5.2,6.61,9.49,13.27,12.85,19.97l-13.08,64.34-12.93-19.53ZM85.92,348.33c-2.65-1.82-5.2-3.85-7.68-6.05l61.04,12.41,3.23,4.88c-9.9,2.11-33.47,4.66-56.6-11.24ZM148.9,355.33l-2.8-4.23,12.33-60.67c.89,2.75,1.63,5.51,2.19,8.28,5.66,27.47-5.92,48.29-11.72,56.63Z"/>
      </g>
    </g>
  </g>
</svg>