<?xml version="1.0" encoding="UTF-8"?>
<svg xmlns="http://www.w3.org/2000/svg" viewBox="0 0 1600 1080">
  <defs>
    <style>
      .cls-1 {
        fill: #27a669;
      }

      .cls-1, .cls-2, .cls-3, .cls-4, .cls-5, .cls-6, .cls-7, .cls-8, .cls-9, .cls-10, .cls-11, .cls-12, .cls-13, .cls-14, .cls-15, .cls-16, .cls-17, .cls-18, .cls-19, .cls-20 {
        stroke-width: 0px;
      }

      .cls-2, .cls-10, .cls-16 {
        fill: #043222;
      }

      .cls-2, .cls-12 {
        opacity: .2;
      }

      .cls-3 {
        opacity: .1;
      }

      .cls-3, .cls-14 {
        fill: #dff1e6;
      }

      .cls-4 {
        mix-blend-mode: soft-light;
        opacity: .61;
      }

      .cls-4, .cls-11 {
        fill: #f4eccb;
      }

      .cls-5 {
        fill: #6ce588;
      }

      .cls-6, .cls-10 {
        opacity: .3;
      }

      .cls-6, .cls-19 {
        fill: #005a3c;
      }

      .cls-7 {
        fill: #c6c897;
      }

      .cls-8 {
        fill: #4c3b10;
      }

      .cls-9 {
        fill: #b0a23f;
      }

      .cls-12 {
        fill: #1e3639;
        mix-blend-mode: multiply;
      }

      .cls-13 {
        fill: #6a5d31;
      }

      .cls-15 {
        fill: #23261f;
      }

      .cls-21, .cls-18 {
        opacity: .5;
      }

      .cls-17 {
        fill: #907950;
      }

      .cls-22 {
        isolation: isolate;
      }

      .cls-18, .cls-20 {
        fill: #61c287;
      }

      .overall {
        opacity: 0.3;
      }
      
      .particles circle, .particles path {
  transform-origin: center;
  animation: float 12s infinite linear;
}

@keyframes float {
  0% {
    transform: translateY(0) translateX(0) scale(1);
  }
  50% {
    transform: translateY(-20px) translateX(20px) scale(1.2);
  }
  100% {
    transform: translateY(0) translateX(0) scale(1);
  }
}
    </style>
  </defs>
  <g class="cls-22 overall">
    <g id="Layer_1" data-name="Layer 1">
      <g>
        <rect class="cls-14" x="-11.78" y="8.39" width="1622.87" height="1081.92"/>
        <g class="cls-21">
          <polygon class="cls-5" points="88.79 8.39 1611.1 8.39 1611.1 303.37 93.83 90.4 88.79 8.39"/>
          <polygon class="cls-5" points="-109.57 235.19 1539.4 455.98 1530.3 511.97 -158.07 430.05 -109.57 235.19"/>
        </g>
        <g>
          <path class="cls-5" d="M990.55,493.59s238.18-289.88,620.55-319.66v461.5l-620.55-141.84Z"/>
          <path class="cls-12" d="M1231.82,493.59s173.63-206.58,379.28-200.08v276.31l-379.28-76.23Z"/>
          <path class="cls-5" d="M8.44,390.59s479.22-121.13,936.52,103.01c-552.3,51.16-788.05,29.73-788.05,29.73L8.44,390.59Z"/>
          <polyline class="cls-5" points="487.04 429.5 531.98 8.39 545.3 8.39 513.41 405.69 663.89 429.5 685.41 8.39 724.59 8.39 724.59 429.5 830 450.89 792.9 8.39 817.01 8.39 861.39 466.07"/>
          <polyline class="cls-5" points="1202.64 392.71 1176.27 8.39 1194.45 8.39 1249.79 383.6"/>
          <polyline class="cls-5" points="1289.19 374.3 1260.22 8.39 1289.19 8.39 1344.12 361.71"/>
          <polyline class="cls-7" points="1516.93 296.74 1542.34 8.39 1578.61 8.39 1561.82 425.99"/>
          <polyline class="cls-5" points="292.18 405.69 300.77 8.39 286.66 8.39 264.25 405.69"/>
          <path class="cls-5" d="M478.74,369.31s-25.21-29.22-18.29-37.1,15.32,16.34,15.32,16.34c0,0-11.86-35.59.49-38.8,12.36-3.21,10.69,35.84,10.69,35.84,0,0,11.05-21.81,42.69-14.36,31.63,7.44,6.11,52.42,6.11,52.42"/>
          <path class="cls-5" d="M897.05,431.9l16.61-13.19c-2.98-6.94-7.23-13.16-13.2-17.86l-17.74,13.75,7.56-19.49c-.39-.15-.74-.32-1.14-.46-43-15-59.81,45.65-59.81,45.65,0,0-3.46-48.93-16.69-45.47s-1.11,37.57,0,39.05l105.16,48.44s4.74-24.15.54-47.48l-21.3-2.94Z"/>
          <path class="cls-5" d="M1359.57,249.6s-16.12-30.56-6.83-37.97c9.3-7.41,15.72,11.37,15.72,11.37,0,0-13.51-25.76,5.44-31.65,18.94-5.89,35.59,46.48,35.59,46.48"/>
          <path class="cls-7" d="M1582,188.18s6.46-35.37,14.84-34.87c8.39.49,0,34.87,0,34.87"/>
          <path class="cls-20" d="M-28.98,390.7s524.83-9.58,764.57,150.91c-497.08-9.75-778.96,13.98-778.96,13.98"/>
        </g>
        <g>
          <path class="cls-16" d="M327.27,430.8c-6.12.35-11.54,1.35-16.37,2.87v23.75l-6.71-21.09c-4.43,2.09-8.25,4.67-11.52,7.61l5.94,25.83s-6.08-10.44-11.66-19.7c-18.07,23.16-13.04,58.81-13.04,58.81l117.6-9.32s0-72.39-64.24-68.75Z"/>
          <path class="cls-16" d="M1266.78,429.5l10.78-11.73c-5-5.39-10.61-10.24-16.91-14.3l-18.33,18.13,10.75-22.46c-8.06-4.01-17.12-6.78-27.3-7.87-3.95-.42-7.76-.6-11.45-.57l4.97,63.65-26.75-60.74c-55.85,14.98-74.18,82.67-74.18,82.67l198.89,41.73s-4.29-53.55-32.17-91.18l-18.3,2.66Z"/>
          <path class="cls-16" d="M1557.48,500.75s10.91-67.64,24.52-66.2c13.61,1.44-3.39,49.65-3.39,49.65,0,0,10.12-23.77,19.32-16.56,9.2,7.21-6.64,50.38-6.64,50.38"/>
          <path class="cls-9" d="M228.9,97.83s71.91,20.42,116.88-28.9c72.08,54.15,115.62,28.9,115.62,28.9l83.41-9.01s85.25,2.72,103.58-31.43c53.1,51.88,231.9,44.1,269.85-49H118.43l110.47,89.44Z"/>
          <path class="cls-9" d="M1045.54,8.39s53.43,67.95,173.75,33.98c22.57,76.77,163.74,58.23,146.48-12.23,99.8,66.11,245.33,12.23,245.33,12.23V8.39h-565.56Z"/>
          <path class="cls-20" d="M-11.78,671.74v-163.01s669.67-41.43,1016.53-45.93c346.86-4.5,606.34,36.91,606.34,36.91v292.4S-11.78,671.74-11.78,671.74Z"/>
          <path class="cls-20" d="M189.89,527.94s702.22-57.43,1339.89,93.61c-923.68,93.83-1374.24,32.89-1374.24,32.89"/>
          <path class="cls-16" d="M748.69,595.56s20.37-59.15,38.25-55.39c17.88,3.76,8.63,29.66,8.63,29.66,0,0,16.53-17.27,31.6-14.39,15.06,2.88,0,46.89,0,46.89"/>
          <path class="cls-16" d="M550.93,611.1s-35.8-59.2-23.35-71.11c12.44-11.9,30.24,29.58,30.24,29.58,0,0-25.44-66.93,14.36-72.2,39.8-5.26,71.77,72.45,71.77,72.45,0,0,5.67-23.03,19.95-14.39,14.28,8.63-19.95,58.61-19.95,58.61"/>
          <polygon class="cls-1" points="944.96 611.1 965.94 8.39 1026.66 8.39 1036.15 611.1 944.96 611.1"/>
          <polygon class="cls-19" points="684.02 611.1 705.01 8.39 765.73 8.39 775.21 611.1 684.02 611.1"/>
          <polygon class="cls-19" points="565.2 611.1 614.05 8.39 643.94 8.39 628.84 611.1 565.2 611.1"/>
          <polygon class="cls-19" points="1480.57 611.1 1568.04 8.39 1597.93 8.39 1559.08 611.1 1480.57 611.1"/>
          <path class="cls-1" d="M869.74,8.39h10.55s28.19,96.89,110.26,89.89v38.39s-117.94-15.52-120.81-128.28Z"/>
          <path class="cls-1" d="M1019.17,229.74s70.94,7.49,70.94-59V8.39h15.79v179.78c0,37.24-42.35,76.91-86.73,72.71"/>
          <path class="cls-17" d="M1101.13,130.76s27.34-2.49,27.34-45.98h7.04s3.24,58.85-33.14,61.31"/>
          <path class="cls-19" d="M611.16,246.74s-51.68,5.04-51.34-47.49h-8.29s-10.99,78.43,58.91,78.43"/>
          <path class="cls-19" d="M836.88,50.23h12.99s25.46,259.52-88.95,259.33v-48.37s83.91,16.49,75.96-210.96Z"/>
          <path class="cls-17" d="M1529.97,82.66h13.45s-4.67,43.54,22.57,43.56c-1.28,40.58-14.05,35.27-14.05,35.27,0,0-26.01-5.21-21.97-78.84Z"/>
          <polygon class="cls-10" points="604.57 611.1 591.27 289.48 565.2 611.1 604.57 611.1"/>
          <polygon class="cls-10" points="724.23 611.1 729.62 8.39 705.01 8.39 684.02 611.1 724.23 611.1"/>
          <polygon class="cls-10" points="1001.52 611.1 961.16 145.76 944.96 611.1 1001.52 611.1"/>
          <polygon class="cls-10" points="1559.08 611.1 1530.85 611.1 1582 28.71 1596.85 25.22 1559.08 611.1"/>
          <path class="cls-9" d="M831.69,106.66s-16.14-2.24-9.08-19.22c16.94,4.88,9.08,19.22,9.08,19.22Z"/>
          <path class="cls-9" d="M303.05,142.79s-16.14-2.24-9.08-19.22c16.94,4.88,9.08,19.22,9.08,19.22Z"/>
          <path class="cls-9" d="M856.37,94.13s-7.82-14.3,10.03-18.74c6.17,16.51-10.03,18.74-10.03,18.74Z"/>
          <path class="cls-9" d="M855.05,104.93s7.47-14.48,21.14-2.18c-10.23,14.36-21.14,2.18-21.14,2.18Z"/>
          <path class="cls-16" d="M567.31,202.11s-7.82-14.3,10.03-18.74c6.17,16.51-10.03,18.74-10.03,18.74Z"/>
          <path class="cls-9" d="M302.47,118.76s-7.82-14.3,10.03-18.74c6.17,16.51-10.03,18.74-10.03,18.74Z"/>
          <path class="cls-16" d="M566,212.91s7.47-14.48,21.14-2.18c-10.23,14.36-21.14,2.18-21.14,2.18Z"/>
          <path class="cls-16" d="M943.92,147.1s-7.82-14.3,10.03-18.74c6.17,16.51-10.03,18.74-10.03,18.74Z"/>
          <path class="cls-16" d="M1035.16,212.91s7.47-14.48,21.14-2.18c-10.23,14.36-21.14,2.18-21.14,2.18Z"/>
          <path class="cls-9" d="M1132.2,79.64s-18.77-6.17-6.66-24.89c19.15,9.49,6.66,24.89,6.66,24.89Z"/>
          <path class="cls-9" d="M1139.99,90.28s-5.4-19.01,16.89-19.46c2.85,21.18-16.89,19.46-16.89,19.46Z"/>
          <path class="cls-16" d="M1037.24,200.59s-5.4-19.01,16.89-19.46c2.85,21.18-16.89,19.46-16.89,19.46Z"/>
          <path class="cls-9" d="M920.87,65.32s-18.77-6.17-6.66-24.89c19.15,9.49,6.66,24.89,6.66,24.89Z"/>
          <path class="cls-9" d="M928.65,75.97s-5.4-19.01,16.89-19.46c2.85,21.18-16.89,19.46-16.89,19.46Z"/>
          <path class="cls-16" d="M656.78,91.88s-18.77-6.17-6.66-24.89c19.15,9.49,6.66,24.89,6.66,24.89Z"/>
          <path class="cls-16" d="M666.65,108.78s-7.12-25.06,22.28-25.66c3.76,27.93-22.28,25.66-22.28,25.66Z"/>
          <path class="cls-9" d="M259.39,128.85s-5.4-19.01,16.89-19.46c2.85,21.18-16.89,19.46-16.89,19.46Z"/>
          <path class="cls-11" d="M1332.14,508.8s-19.66,6.35-33.77,3.18c4.94-20.03,33.29-17.83,33.77-3.18Z"/>
          <path class="cls-11" d="M1409.49,544.7l-88.59-5.13s3.85-6.04,10.54-12.94c9.76-10.11,25.56-22.11,44.08-19.8,7.1.89,12.7,3.33,17.16,6.6,15.15,11.01,16.81,31.27,16.81,31.27Z"/>
          <path class="cls-7" d="M900.12,500.91c-5.02-6.11,6.71-19.3,16.96-18.56s13.21,19.45,13.21,19.45l-30.18-.89Z"/>
          <path class="cls-11" d="M527.58,496.34c-3.81,4.39-60.95,8.74-88.8-2.96,0,0-1.13-14.19,4.57-26.77,4.57-10.17,13.63-19.28,31.33-18.85,20.6.5,35.12,12.46,43.77,24.43,7.96,11.01,10.95,22.05,9.13,24.15Z"/>
          <path class="cls-12" d="M527.58,496.34c-3.81,4.39-60.95,8.74-88.8-2.96,0,0-1.13-14.19,4.57-26.77,16.57,5.52,48.56,13.68,75.11,5.58,7.96,11.01,10.95,22.05,9.13,24.15Z"/>
          <path class="cls-12" d="M1409.49,544.7l-88.59-5.13s3.85-6.04,10.54-12.94c15.3,1.49,47.73,2.51,61.24-13.2,15.15,11.01,16.81,31.27,16.81,31.27Z"/>
        </g>
        <g>
          <polygon class="cls-1" points="-11.77 918.55 -11.77 599.02 1611.1 569.83 1611.1 1090.31 -11.77 918.55"/>
          <path class="cls-3" d="M599.1,817.22s613.93-102.29,1011.99-25.12v237.21l-1011.99-212.1Z"/>
          <ellipse class="cls-2" cx="1104.67" cy="685.38" rx="220.89" ry="46.93"/>
          <ellipse class="cls-2" cx="772.13" cy="644.43" rx="23.44" ry="6.85"/>
          <ellipse class="cls-2" cx="935.96" cy="742.49" rx="23.44" ry="6.85"/>
          <path class="cls-2" d="M844.33,619.66c0,5.58-15.47,10.1-34.56,10.1s-34.56-4.52-34.56-10.1,15.47-10.1,34.56-10.1,34.56,4.52,34.56,10.1Z"/>
          <path class="cls-2" d="M1551.48,731.42c0,5.58-15.47,10.1-34.56,10.1s-34.56-4.52-34.56-10.1,15.47-10.1,34.56-10.1,34.56,4.52,34.56,10.1Z"/>
          <path class="cls-2" d="M614.62,719.37c0,6.65-25.38,12.04-56.69,12.04s-56.69-5.39-56.69-12.04,25.38-12.04,56.69-12.04,56.69,5.39,56.69,12.04Z"/>
          <ellipse class="cls-2" cx="1300.82" cy="619.66" rx="56.69" ry="12.04"/>
          <ellipse class="cls-2" cx="380.89" cy="663.49" rx="176.92" ry="49.45"/>
          <path class="cls-19" d="M1090.11,533.85s-71.01-2.86-103.87,48.56l15.29,28.7-22.69-14.57c-1.27,3.01-2.43,6.16-3.45,9.47l15.17,29.43-19.7-7.36c-1.04,9.21-1.26,19.29-.45,30.38,107.85,13.55,130.72,0,130.72,0v-14.39l-11.02-110.21Z"/>
          <path class="cls-1" d="M260.84,649.03L221.21,7.49h-108.12l-4.28,645.65s90.53,35.66,152.02-4.1Z"/>
          <polygon class="cls-10" points="138.49 7.49 113.09 7.49 108.82 646.77 169.03 646.77 138.49 7.49"/>
          <path class="cls-19" d="M222.21,654.34c-6.01-37.2-42.46-50.7-71.47-51.43l-14.98,38.6-17.3-33.21c-11.17,4.32-20.23,11.05-25.22,19.55l12.07,34.03-18.93-16.16c-6.8,28.21,6.53,48.04,6.53,48.04,0,0,55.09.51,83.25,0,15.15-.28,51.36-6.55,46.05-39.42Z"/>
          <path class="cls-11" d="M520.18,678.4c-24.71,11.04-78.11,24.91-169.93,3.12-6.77-1.6-11.1-8.29-9.8-15.13,3.55-18.65,15.04-52.99,52.06-64.07,8.72-2.62,18.85-3.94,30.64-3.46,55.74,2.27,88.41,33.97,103.56,53.88,1.69,2.23,2.75,4.72,3.18,7.25,1.34,7.34-2.32,15.1-9.72,18.41Z"/>
          <path class="cls-12" d="M520.18,678.4c-24.71,11.04-78.11,24.91-169.93,3.12-6.77-1.6-11.1-8.29-9.8-15.13,3.55-18.65,15.04-52.99,52.06-64.07.67,32.5,19.26,83.81,137.38,57.67,1.34,7.34-2.32,15.1-9.72,18.41Z"/>
          <path class="cls-1" d="M1180.6,672.5s-13.72,10.95-41.85,14.71c-18.39,2.49-42.95,1.9-73.87-6.82-3.81-1.06-7.73-2.25-11.73-3.59l16.25-668.41h88.72l5.73,169.6,16.75,494.5Z"/>
          <path class="cls-6" d="M1180.6,672.5s-13.72,10.95-41.85,14.71l25.1-509.21,16.75,494.5Z"/>
          <path class="cls-13" d="M1139.32,115.43s87.69-17.47,102.54-107.04h31.71s-27.89,130.57-123.66,151.66"/>
          <path class="cls-18" d="M1101.13,8.39l-36.24,672c-3.81-1.06-7.73-2.25-11.73-3.59l16.25-668.41h31.72Z"/>
          <path class="cls-19" d="M1019.17,693.03s7.74-78.01,65.2-73.15c57.46,4.86,88.86,72.27,85.98,79.47-2.88,7.2-102.33,16.14-151.19-6.32Z"/>
          <path class="cls-7" d="M855.05,645.9s-1.46-23.89,25.24-26.24c26.7-2.34,32.23,24.4,32.23,24.4l-57.47,1.84Z"/>
          <path class="cls-7" d="M928.08,693.03s9.43-18.69,27.27-19.13c17.84-.45,27.92,19.13,27.92,19.13h-55.19Z"/>
        </g>
        <g>
          <g>
            <polygon class="cls-20" points="1398.8 8.39 1513.7 8.39 1525.8 918.69 1362.47 918.69 1398.8 8.39"/>
            <path class="cls-15" d="M1317.43,8.39s-25.51,147.89,102.05,179.78c15.49-33.71,19.13-45.56,19.13-45.56,0,0-97.8-29.73-99.01-134.23"/>
            <path class="cls-20" d="M1415.21,364.03s-138.35,5.76-180.09-146.79h-15.83s7.59,195.22,195.92,208.75"/>
            <path class="cls-20" d="M1281.86,314.81s31.83-9.75,33.49-37.34h16.79s0,45.49-26.92,57.46"/>
            <path class="cls-15" d="M1499.91,244.09s43.67-8.9,52.6-63.19h20.82s-10.68,100.57-67.64,108.58"/>
          </g>
          <path class="cls-19" d="M1265.98,269.46s-20.28-27.37,15.27-39.72c18.83,34.77-15.27,39.72-15.27,39.72Z"/>
          <path class="cls-8" d="M1309.66,102.52s-20.28-27.37,15.27-39.72c18.83,34.77-15.27,39.72-15.27,39.72Z"/>
          <path class="cls-8" d="M1560.71,278.33s-33.37,6.82-29.55-30.62c39.47-2.38,29.55,30.62,29.55,30.62Z"/>
          <path class="cls-8" d="M1596.85,244.33s-35.77,28.97-54.51-18.3c45.84-27.44,54.51,18.3,54.51,18.3Z"/>
          <path class="cls-19" d="M1246.54,287.96s-35.77,28.97-54.51-18.3c45.84-27.44,54.51,18.3,54.51,18.3Z"/>
          <path class="cls-19" d="M1240.18,361.71s-28.32-36.28,19.28-54.17c26.61,46.32-19.28,54.17-19.28,54.17Z"/>
          <path class="cls-8" d="M1298.37,134.61s10.7-44.77,54.37-18.71c-19.62,49.69-54.37,18.71-54.37,18.71Z"/>
          <path class="cls-19" d="M1314.04,357.32s-26.47-38.88,23.27-53.96c24.05,49.01-23.27,53.96-23.27,53.96Z"/>
          <polygon class="cls-6" points="1517.79 374.3 1525.8 918.69 1415.21 918.69 1517.79 374.3"/>
        </g>
        <path class="cls-19" d="M-11.78,305.19c9.76.92,19.66.38,29.27-1.59,6.64-1.37,13.41-3.57,18.24-8.34,8.94-8.83,8.47-23.15,7.38-35.67,11.39-2.18,24.14,1.28,34.15-4.59,7.13-4.18,11.13-12.4,12.16-20.6,1.03-8.2-.52-16.48-2.22-24.57,8.51-.73,16.49-6.09,20.38-13.7,3.89-7.61,3.56-17.22-.84-24.54-.99-1.65-2.23-3.42-1.88-5.32.26-1.43,1.37-2.53,2.47-3.47,6.65-5.66,15.37-9.15,20.3-16.36,7.39-10.8,3.49-25.73-3.14-37.01,19.57,1.26,39.94,2.4,58.09-5.04,30.6-12.53,47.14-46.34,52.88-78.91,11.76,5.59,26.4,4.57,37.27-2.59,10.87-7.16,17.61-24.34,17.11-37.34H-10.33l-1.45,319.65Z"/>
        <path class="cls-19" d="M889.16-14.46c-2.55,31.69,32.64,65.11,63.12,56.09-5.82,52.39,41.79,104.17,94.48,102.78,10.62-.28,23.59-1.34,29.39,7.56,2.49,3.82,2.86,8.58,3.65,13.06,6.76,38.52,50.11,63.29,88.88,58.13,38.77-5.16,71.17-33.92,90.7-67.8,10.96,14.63,31.33,21.45,48.89,16.38,17.56-5.08,31.14-21.72,32.6-39.94,29.39,14.55,66.71,11.45,93.29-7.73,26.59-19.19,41.28-53.63,36.73-86.11,0,0,48.34,19.11,73.73,8.88,20.82-8.39,45.25-39.5,39.87-61.29h-695.33Z"/>
        <path class="cls-16" d="M823.34-14.46c.75,23.02,5.47,27.15-11.12,43.13-21.7,20.9-62.4,6.77-90.92-2.93-5.54,15.99-23.83,24.65-40.74,24.39-16.92-.26-32.85-7.49-48.21-14.58-.05,20.33-10.46,40.37-27.06,52.11-16.6,11.74-38.96,14.87-58.14,8.15-2.74,21.78-30.72,35.87-49.85,25.11-.55,25.4-3.16,51.21-13.04,74.61-9.88,23.4-27.88,44.32-51.78,52.94-23.9,8.62-53.66,2.56-68.9-17.76-9-11.99-12.24-27.21-15.24-41.9-6.36,6.16-17.08,5.54-24.67.99-7.6-4.55-12.81-12.11-17.77-19.44-10.29,34.32-50.12,55.71-85.12,48.05-35-7.66-61.66-41.27-64.14-77.01-14.67,20.7-50.4,20.7-65.08,0-7.84,22.62-30.92,39.04-54.86,39.03-23.94,0-39.18-18.18-47.01-40.8V-14.46h833.67Z"/>
        <path class="cls-19" d="M1665.75,27.96c-9.83-5.24-39.1,6.26-40.36,17.33-.4,3.54-.2,7.53-2.61,10.14-2.31,2.51-6.11,2.73-9.49,3.14-26.51,3.23-47.21,31.32-42.43,57.6,3.14,17.26,15.4,31.73,29.82,41.73-9.02,4.8-15.39,14.27-16.44,24.44-1.05,10.17,3.24,20.73,11.09,27.28-27.19,6.56-48.57,31.33-52.58,59.01s8.75,56.77,30.92,73.82c5.96,4.59,12.74,8.59,16.61,15.04,2.32,3.88,3.41,8.36,5.37,12.44,8.46,17.55,34.98,22.79,49.48,9.77,3.78,7.78,12,13.21,20.64,13.63V27.96Z"/>
        <path class="cls-19" d="M1388.91-14.46c-.58,18.52,12.07,43.05,27.28,53.63-24.38,12.57-44.06,35.54-49.08,62.51-5.02,26.97,6.48,57.22,30.1,71.17,10.12,5.98,21.74,8.84,33.18,11.58-5.55,12.79-3.77,28.47,4.52,39.68,8.29,11.21,22.76,17.52,36.61,15.96.85,9.52-1.87,19.01-1.91,28.57-.05,11.92,4.08,23.52,9.71,34.02,14.71,27.45,41.24,49.29,71.97,54.4,30.72,5.11,64.77-8.54,80.26-35.56,7.39,10.91,20.71,17.52,33.87,16.79l2.09-352.74h-278.59Z"/>
        <path class="cls-16" d="M578.2-14.46c-5.21,4.52-8.02,17.15-4.89,23.3,3.13,6.15,8.76,10.57,14.21,14.78-7.48,8.12-8.45,20.89-4.17,31.06,4.28,10.17,13.04,17.94,22.77,23.16,19.26,10.35,43.2,11.53,63.38,3.13,13.04,27.5,38.43,49.37,68.14,56,29.7,6.63,63.03-3.03,83-25.99,14.14,24.13,44.47,37.55,71.84,31.79,27.37-5.76,49.72-30.27,52.93-58.06,6.82,8.09,14.64,16.17,24.86,18.92,10.22,2.75,23.17-2.14,25.54-12.46,13.67,18.34,33.5,32.61,55.94,37,22.45,4.39,47.34-2.01,63.06-18.62,13.22-13.96,18.93-33.22,24.21-51.7,10.99,11.04,29.25,14,43.17,7.01,13.92-6.99,22.45-23.4,20.16-38.81,12.23,5.39,27.12,4.22,38.36-3,11.24-7.22,18.49-24.15,18.67-37.51h-681.18Z"/>
        <path class="cls-16" d="M654.3-2.94c-10.95-6.45-27.11-.58-31.37,11.39,15.46,4.88,32.44,4.85,47.89-.1,1.69,10.2,6.17,19.93,12.84,27.83,1.12,1.33,2.5,2.7,4.24,2.77,1.28.05,2.47-.65,3.5-1.4,10.8-7.82,13.02-22.73,14.26-36.01,8.39,18.1,21.43,34.03,37.52,45.82,8.73-12.09,6.24-28.64,3.37-43.27,7.04,6.83,14.14,13.72,22.48,18.88,8.34,5.16,18.13,8.51,27.89,7.56,9.76-.95,19.34-6.8,23.06-15.87,3.37,8.65,11.17,15.8,20.37,17.03,9.2,1.23,19.25-4.38,21.84-13.3.52-1.81.91-3.92,2.52-4.89.87-.52,1.92-.58,2.93-.58,16.47.02,29.46,13.94,38.04,28,3.45-14.15.36-29.75-8.22-41.52,0,0,30.63,12.55,45.56,2.51s20.95-16.37,20.95-16.37h-305.09l-4.59,11.52Z"/>
        <path class="cls-16" d="M1501.33-14.46c-6.93,4.31-11.32,20.44-10.34,28.54.98,8.1,5.2,15.43,9.91,22.09,1.54,2.17,3.2,4.47,3.31,7.13.14,3.61-2.62,6.62-5.31,9.03-9.17,8.19-19.9,14.63-31.44,18.88,9.63,9.15,24.74,12.01,37.05,7.01-2.37,12.39-8.8,23.97-18.07,32.53,7.37,3.68,16.63,3.27,23.65-1.05-3.39,17.6-4.3,35.68-2.7,53.54,15.09-5.26,28.42-15.43,37.47-28.59,5.22,8.08,10.43,16.16,15.65,24.24,6.4-6.32,12.8-12.65,19.19-18.97,1.27-1.25,2.67-2.58,4.44-2.79,3.16-.37,5.44,2.8,7.31,5.38,9.8,13.51,28.78,19.51,44.57,14.09-13.4,12.67-17.64,34.04-10.1,50.87.56,1.24,1.18,2.55,1,3.9-.21,1.56-1.45,2.76-2.65,3.78-6.56,5.53-14.35,9.59-22.63,11.82,7.31,4.47,15.91,6.78,24.47,6.59,1.51,12.94-5.82,26.45-17.49,32.23,9.02,4.77,20.85,3.6,28.77-2.85,7.84,11.52,12.35,25.28,12.87,39.21,4.52.18,11.31-11.61,15.45-13.44l1.8-303.15h-166.17Z"/>
        <path class="cls-16" d="M1163.76,33.25c-5.18,11.16-3.71,25.11,3.67,34.95.74.98,1.62,1.99,2.83,2.23,1.06.21,2.14-.21,3.11-.68,5.79-2.73,10.83-7.03,14.44-12.31-2.77,12.1-.6,25.25,5.92,35.82.68,1.11,1.47,2.24,2.65,2.78,2.36,1.08,5-.62,6.95-2.32,6.25-5.44,11.6-11.89,15.79-19.03,5.61,6.39,7.56,15.39,6.79,23.86-.77,8.47-4,16.52-7.72,24.16,7.34,1.58,15.1-1.5,20.67-6.54,5.56-5.04,9.23-11.82,12.23-18.7,7.56,9.39,16.29,17.84,25.92,25.09,1.4,1.05,3.2,2.13,4.79,1.39,1.09-.51,1.65-1.73,2.08-2.86,4.03-10.79,3.64-23.16-1.06-33.67,9.55,13.81,23.05,24.86,38.48,31.51,4.24-11.65,3.26-25.08-2.63-35.99,7.55,1.55,15.1,3.11,22.65,4.66,1.31.27,2.81.5,3.88-.3,1.2-.9,1.28-2.66,1.17-4.16-.39-5.18-1.69-10.28-3.84-15.01,17.11,9.3,36.1,18.9,55.16,14.89-8.66-7.75-15.2-17.86-18.71-28.95,14.91-1.34,30.17,1.56,43.55,8.28-.54-6.91-1.08-13.81-1.62-20.72,15.43-3.56,32.77,4.08,40.55,17.87,3.8-7.31,5.37-15.77,4.44-23.95,16.79,13.13,38.56,19.72,59.82,18.12l13.31-68.13h-374.42l-.85,47.71Z"/>
        <path class="cls-19" d="M-11.78,1090.31v-362.39s450.02-14.25,900.7,61.86c450.68,76.11,722.17,136.71,722.17,136.71v163.82H-11.78Z"/>
        <g>
          <polygon class="cls-16" points="-11.78 1090.31 -11.77 918.55 1611.1 996.17 1611.1 1090.31 -11.78 1090.31"/>
          <path class="cls-16" d="M599.1,963.93s11.43-41.52,31.58-37.2c20.15,4.32,0,43.17,0,43.17"/>
          <path class="cls-16" d="M340.22,955.8s-17.72-45.21-1.79-47.21c15.93-2.01,26.12,39.57,26.12,39.57"/>
          <path class="cls-16" d="M1170.54,1004.43s-30.17-43.48-10.86-56.27c19.31-12.79,46.76,46.21,46.76,46.21,0,0-17.38-81.14,12.84-80.87,30.22.28,23.83,50.43,23.83,50.43,0,0,18.54-27.44,37.65-20.09,19.11,7.35,6.15,60.59,6.15,60.59"/>
          <path class="cls-16" d="M398.38,981.81s-3.66-161.01,12.14-164.53c15.81-3.52,24.68,164.53,24.68,164.53,0,0,1.39-122.65,25.41-118.37,24.01,4.28-1.35,118.37-1.35,118.37"/>
          <g>
            <path class="cls-16" d="M546.31,985.84l4.62-119.46s-29.59-10.83-20.96-27.24,22.93,2.53,22.93,2.53c0,0,2.27-34.18,26.37-27.64,24.1,6.54-12.6,45.44-12.6,45.44v126.38"/>
            <path class="cls-16" d="M539.49,913.36s-26.43,3.55-21.64-24.82c24.29-4.43,21.64,24.82,21.64,24.82Z"/>
            <path class="cls-16" d="M574.42,905.72s-12.51-32.9,25.38-35.28c13.01,29.89-25.38,35.28-25.38,35.28Z"/>
          </g>
          <g>
            <path class="cls-16" d="M1110.8,1005.15l4.04-104.66s-25.92-9.48-18.36-23.87c7.56-14.38,20.09,2.21,20.09,2.21,0,0,1.99-29.95,23.1-24.22,21.11,5.73-11.04,39.81-11.04,39.81v110.72"/>
            <path class="cls-16" d="M1135.42,934.96s-6.79-40.53,28.59-50.63c3.1,40.26-28.59,50.63-28.59,50.63Z"/>
          </g>
        </g>
        <g class="particles">
          <g>
            <circle class="cls-4" cx="1297.11" cy="721.32" r="20.47" transform="translate(-130.14 1128.46) rotate(-45)"/>
            <path class="cls-11" d="M1308.31,721.32c0-6.19-5.01-11.2-11.2-11.2s-11.2,5.01-11.2,11.2,5.01,11.2,11.2,11.2,11.2-5.02,11.2-11.2Z"/>
          </g>
          <g>
            <circle class="cls-4" cx="1331.86" cy="936.78" r="20.47" transform="translate(-179.6 331.06) rotate(-13.28)"/>
            <path class="cls-11" d="M1343.06,936.78c0-6.19-5.01-11.2-11.2-11.2s-11.2,5.02-11.2,11.2,5.01,11.2,11.2,11.2,11.2-5.01,11.2-11.2Z"/>
          </g>
          <g>
            <circle class="cls-4" cx="1222.22" cy="683.45" r="20.47"/>
            <path class="cls-11" d="M1233.42,683.45c0-6.19-5.01-11.2-11.2-11.2s-11.2,5.02-11.2,11.2,5.01,11.2,11.2,11.2,11.2-5.01,11.2-11.2Z"/>
          </g>
          <g>
            <circle class="cls-4" cx="990.55" cy="888.08" r="20.47" transform="translate(-209 1463.38) rotate(-67.5)"/>
            <path class="cls-11" d="M1001.75,888.08c0-6.19-5.01-11.2-11.2-11.2s-11.2,5.01-11.2,11.2,5.02,11.2,11.2,11.2,11.2-5.01,11.2-11.2Z"/>
          </g>
          <g>
            <circle class="cls-4" cx="378.53" cy="549.77" r="20.47" transform="translate(-116.19 101.68) rotate(-13.28)"/>
            <path class="cls-11" d="M389.73,549.77c0-6.19-5.01-11.2-11.2-11.2s-11.2,5.01-11.2,11.2,5.02,11.2,11.2,11.2,11.2-5.01,11.2-11.2Z"/>
          </g>
          <g>
            <path class="cls-4" d="M1278,529.07c0-5.65-4.58-10.24-10.24-10.24s-10.24,4.58-10.24,10.24,4.58,10.24,10.24,10.24,10.24-4.58,10.24-10.24Z"/>
            <path class="cls-11" d="M1273.36,529.07c0-3.09-2.51-5.6-5.6-5.6s-5.6,2.51-5.6,5.6,2.51,5.6,5.6,5.6,5.6-2.51,5.6-5.6Z"/>
          </g>
          <g>
            <path class="cls-4" d="M1057.57,926.49c0-4.31-3.49-7.8-7.8-7.8s-7.8,3.49-7.8,7.8,3.49,7.8,7.8,7.8,7.8-3.49,7.8-7.8Z"/>
            <circle class="cls-11" cx="1049.78" cy="926.49" r="4.26"/>
          </g>
          <g>
            <path class="cls-4" d="M917.93,930.75c0-4.31-3.49-7.8-7.8-7.8s-7.8,3.49-7.8,7.8,3.49,7.8,7.8,7.8,7.8-3.49,7.8-7.8Z"/>
            <path class="cls-11" d="M914.4,930.75c0-2.36-1.91-4.26-4.26-4.26s-4.26,1.91-4.26,4.26,1.91,4.27,4.26,4.27,4.26-1.91,4.26-4.27Z"/>
          </g>
          <g>
            <path class="cls-4" d="M321.7,870.45c0-4.31-3.49-7.8-7.8-7.8s-7.8,3.49-7.8,7.8,3.49,7.8,7.8,7.8,7.8-3.49,7.8-7.8Z"/>
            <path class="cls-11" d="M318.17,870.45c0-2.36-1.91-4.26-4.27-4.26s-4.26,1.91-4.26,4.26,1.91,4.26,4.26,4.26,4.27-1.91,4.27-4.26Z"/>
          </g>
          <g>
            <path class="cls-4" d="M1070.31,867.61c0-4.31-3.49-7.8-7.8-7.8s-7.8,3.49-7.8,7.8,3.49,7.8,7.8,7.8,7.8-3.49,7.8-7.8Z"/>
            <path class="cls-11" d="M1066.78,867.61c0-2.36-1.91-4.26-4.27-4.26s-4.26,1.91-4.26,4.26,1.91,4.26,4.26,4.26,4.27-1.91,4.27-4.26Z"/>
          </g>
          <g>
            <path class="cls-4" d="M491.19,830.07c0-4.31-3.49-7.8-7.8-7.8s-7.8,3.49-7.8,7.8,3.49,7.8,7.8,7.8,7.8-3.49,7.8-7.8Z"/>
            <path class="cls-11" d="M487.66,830.07c0-2.36-1.91-4.26-4.26-4.26s-4.26,1.91-4.26,4.26,1.91,4.27,4.26,4.27,4.26-1.91,4.26-4.27Z"/>
          </g>
          <g>
            <path class="cls-4" d="M1136.63,796.74c0-4.31-3.49-7.8-7.8-7.8s-7.8,3.49-7.8,7.8,3.49,7.8,7.8,7.8,7.8-3.49,7.8-7.8Z"/>
            <path class="cls-11" d="M1133.1,796.74c0-2.36-1.91-4.26-4.26-4.26s-4.27,1.91-4.27,4.26,1.91,4.27,4.27,4.27,4.26-1.91,4.26-4.27Z"/>
          </g>
          <g>
            <circle class="cls-4" cx="880.29" cy="749.34" r="10.24"/>
            <circle class="cls-11" cx="880.29" cy="749.34" r="5.6"/>
          </g>
          <g>
            <path class="cls-4" d="M394.37,763.3c0-5.65-4.58-10.24-10.24-10.24s-10.24,4.58-10.24,10.24,4.58,10.24,10.24,10.24,10.24-4.58,10.24-10.24Z"/>
            <path class="cls-11" d="M389.73,763.3c0-3.09-2.51-5.6-5.6-5.6s-5.6,2.51-5.6,5.6,2.51,5.6,5.6,5.6,5.6-2.51,5.6-5.6Z"/>
          </g>
          <g>
            <path class="cls-4" d="M1242.06,817.22c0-5.65-4.58-10.24-10.24-10.24s-10.24,4.58-10.24,10.24,4.58,10.24,10.24,10.24,10.24-4.58,10.24-10.24Z"/>
            <path class="cls-11" d="M1237.42,817.22c0-3.09-2.51-5.6-5.6-5.6s-5.6,2.51-5.6,5.6,2.51,5.6,5.6,5.6,5.6-2.51,5.6-5.6Z"/>
          </g>
          <g>
            <path class="cls-4" d="M1297.11,802.34c0-5.65-4.58-10.24-10.24-10.24s-10.24,4.58-10.24,10.24,4.58,10.24,10.24,10.24,10.24-4.58,10.24-10.24Z"/>
            <path class="cls-11" d="M1292.47,802.34c0-3.09-2.51-5.6-5.6-5.6s-5.6,2.51-5.6,5.6,2.51,5.6,5.6,5.6,5.6-2.51,5.6-5.6Z"/>
          </g>
          <g>
            <circle class="cls-4" cx="817.01" cy="853.9" r="10.24"/>
            <circle class="cls-11" cx="817.01" cy="853.9" r="5.6"/>
          </g>
          <g>
            <path class="cls-4" d="M342.03,792.11c0-5.65-4.58-10.24-10.24-10.24s-10.24,4.58-10.24,10.24,4.58,10.24,10.24,10.24,10.24-4.58,10.24-10.24Z"/>
            <path class="cls-11" d="M337.39,792.11c0-3.09-2.51-5.6-5.6-5.6s-5.6,2.51-5.6,5.6,2.51,5.6,5.6,5.6,5.6-2.51,5.6-5.6Z"/>
          </g>
        </g>
      </g>
      
    </g>
  </g>
</svg>